<svg xmlns="http://www.w3.org/2000/svg" data-name="Layer 1" viewBox="0 0 100 100" x="0px" y="0px"><path d="M37.24,66.35c0,2.64,0,5.15,0,7.65A1.74,1.74,0,0,1,35,75.84,3.32,3.32,0,0,1,33.8,75c-2.76-2.75-5.51-5.52-8.27-8.28l-8-8a1.78,1.78,0,0,1,0-2.86q8.17-8.2,16.35-16.41a2,2,0,0,1,2.3-.65,1.94,1.94,0,0,1,1.07,2.06c0,2.13,0,4.27,0,6.41v.94H63.69c.29,0,.59,0,.88,0a1.72,1.72,0,0,1,1.72,1.83c0,1.65,0,3.31,0,4.77L78.56,42.71,66.29,30.44v4.35c0,1.83-.59,2.43-2.45,2.43-4.44,0-8.87,0-13.31,0a3.48,3.48,0,0,1-1.46-.31,1.55,1.55,0,0,1-.79-1.84,1.6,1.6,0,0,1,1.38-1.36,6.05,6.05,0,0,1,1-.06h12V32.7c0-2.19,0-4.38,0-6.57A1.83,1.83,0,0,1,66,24.77q8.25,8.25,16.5,16.5a1.83,1.83,0,0,1,0,2.88Q74.24,52.4,66,60.64a1.82,1.82,0,0,1-3.23-1.38q0-3.3,0-6.58v-.87H36.23c-1.94,0-2.55-.61-2.55-2.53V45.1L21.42,57.36c4,4,8.09,8.09,12.21,12.21a4.41,4.41,0,0,0,0-.49c0-1.44,0-2.88,0-4.33a1.81,1.81,0,0,1,1.94-2c4.73,0,9.46,0,14.19,0a1.8,1.8,0,1,1-.05,3.58c-3.79,0-7.59,0-11.38,0Z" fill="#000000" stroke="#000000" stroke-width="2" stroke-linecap="round" stroke-linejoin="round"/></svg>