<svg xmlns="http://www.w3.org/2000/svg" version="1.1" viewBox="0 0 100 100">
 <path d="m47.789 58.391 7.7344-7.7344c0.61328-0.60938 1.6016-0.60938 2.2109 0s0.60938 1.6016 0 2.2109l-8.8398 8.8359c-0.60938 0.61328-1.5977 0.61328-2.207 0l-4.4219-4.418c-0.59766-0.61328-0.58984-1.5898 0.015625-2.1953 0.60156-0.60547 1.582-0.60938 2.1953-0.015625zm2.2109-19.398c4.5586 0 8.9297 1.8125 12.152 5.0352s5.0352 7.5938 5.0352 12.152c0 4.5586-1.8125 8.9297-5.0352 12.156-3.2227 3.2227-7.5938 5.0312-12.152 5.0312s-8.9297-1.8086-12.152-5.0312c-3.2227-3.2266-5.0352-7.5977-5.0352-12.156 0.003906-4.5547 1.8164-8.9258 5.0391-12.148 3.2227-3.2188 7.5898-5.0312 12.148-5.0391zm0 3.125c-5.6875 0-10.816 3.4258-12.992 8.6836-2.1758 5.2539-0.97266 11.301 3.0469 15.324 4.0234 4.0195 10.07 5.2227 15.328 3.0469 5.2539-2.1758 8.6797-7.3047 8.6797-12.992-0.007812-7.7617-6.3008-14.055-14.062-14.062zm39.062-3.0547v7.8125c0 0.58594-0.32422 1.1211-0.84375 1.3867-0.51953 0.26953-1.1445 0.22656-1.6211-0.11328l-5.3477-3.7852v43.137c0 0.41406-0.16406 0.8125-0.45703 1.1055s-0.69141 0.45703-1.1055 0.45703h-59.375c-0.86328 0-1.5625-0.69922-1.5625-1.5625v-43.137l-5.3477 3.7852c-0.47656 0.33984-1.1016 0.38281-1.6211 0.11328-0.51953-0.26562-0.84375-0.80078-0.84375-1.3867v-7.8125c0-0.50781 0.24609-0.98047 0.66016-1.2734l37.5-26.562c0.53906-0.38281 1.2656-0.38281 1.8047 0l17.848 12.641v-11.367c0-0.86328 0.69922-1.5625 1.5625-1.5625h9.375c0.41406 0 0.8125 0.16406 1.1055 0.45703s0.45703 0.69141 0.45703 1.1055v20.219l7.1523 5.0664v0.003906c0.41406 0.29297 0.66016 0.76563 0.66016 1.2734zm-17.188-12.984 6.25 4.4258v-16.441h-6.25zm6.25 16.07-28.125-19.922-28.125 19.922v43.789h56.25zm7.8125-2.2773-35.938-25.457-35.938 25.457v3.9844l35.035-24.816c0.53906-0.38672 1.2656-0.38672 1.8047 0l35.035 24.816z" fill="#000000" stroke="#000000" stroke-width="2" stroke-linecap="round" stroke-linejoin="round"/>
</svg>