<svg xmlns="http://www.w3.org/2000/svg" version="1.1" viewBox="0 0 100 100">
 <path d="m46 46h-28v-28h28zm-24-4h20v-20h-20z" fill="#000000" stroke="#000000" stroke-width="2" stroke-linecap="round" stroke-linejoin="round"/>
 <path d="m82 82h-28v-28h28zm-24-4h20v-20h-20z" fill="#000000" stroke="#000000" stroke-width="2" stroke-linecap="round" stroke-linejoin="round"/>
 <path d="m54 18h4v18h-4z" fill="#000000" stroke="#000000" stroke-width="2" stroke-linecap="round" stroke-linejoin="round"/>
 <path d="m66 26h4v20h-4z" fill="#000000" stroke="#000000" stroke-width="2" stroke-linecap="round" stroke-linejoin="round"/>
 <path d="m18 54h4v18h-4z" fill="#000000" stroke="#000000" stroke-width="2" stroke-linecap="round" stroke-linejoin="round"/>
 <path d="m42 64h4v18h-4z" fill="#000000" stroke="#000000" stroke-width="2" stroke-linecap="round" stroke-linejoin="round"/>
 <path d="m78 18h4v10h-4z" fill="#000000" stroke="#000000" stroke-width="2" stroke-linecap="round" stroke-linejoin="round"/>
 <path d="m78 36h4v10h-4z" fill="#000000" stroke="#000000" stroke-width="2" stroke-linecap="round" stroke-linejoin="round"/>
 <path d="m66 18h4v10h-4z" fill="#000000" stroke="#000000" stroke-width="2" stroke-linecap="round" stroke-linejoin="round"/>
 <path d="m66 36h4v10h-4z" fill="#000000" stroke="#000000" stroke-width="2" stroke-linecap="round" stroke-linejoin="round"/>
 <path d="m30 54h4v10h-4z" fill="#000000" stroke="#000000" stroke-width="2" stroke-linecap="round" stroke-linejoin="round"/>
 <path d="m30 72h4v10h-4z" fill="#000000" stroke="#000000" stroke-width="2" stroke-linecap="round" stroke-linejoin="round"/>
 <path d="m27 95h-22v-22h4v18h18z" fill="#000000" stroke="#000000" stroke-width="2" stroke-linecap="round" stroke-linejoin="round"/>
 <path d="m95 95h-22v-4h18v-18h4z" fill="#000000" stroke="#000000" stroke-width="2" stroke-linecap="round" stroke-linejoin="round"/>
 <path d="m95 27h-4v-18h-18v-4h22z" fill="#000000" stroke="#000000" stroke-width="2" stroke-linecap="round" stroke-linejoin="round"/>
 <path d="m9 27h-4v-22h22v4h-18z" fill="#000000" stroke="#000000" stroke-width="2" stroke-linecap="round" stroke-linejoin="round"/>
</svg>