<svg xmlns="http://www.w3.org/2000/svg" version="1.1" viewBox="0 0 100 100">
 <path d="m71.484 87.109v1.9531c0 3.2344-2.625 5.8594-5.8594 5.8594h-46.875c-3.2383 0-5.8594-2.625-5.8594-5.8594v-62.5c0-3.2344 2.6211-5.8594 5.8594-5.8594h1.9531v-1.9531c0-3.2344 2.625-5.8594 5.8594-5.8594h1.9531v-1.9531c0-3.2344 2.625-5.8594 5.8594-5.8594h35.938c0.31641 0 0.61328 0.12891 0.82812 0.34375l15.625 15.625c0.21484 0.21875 0.34375 0.51172 0.34375 0.82812v51.562c0 3.2344-2.625 5.8594-5.8594 5.8594h-1.9531v1.9531c0 3.2344-2.625 5.8594-5.8594 5.8594zm-50.781-64.062h-1.9531c-1.9414 0-3.5156 1.5742-3.5156 3.5156v62.5c0 1.9414 1.5742 3.5156 3.5156 3.5156h46.875c1.9414 0 3.5156-1.5742 3.5156-3.5156v-1.9531h-42.578c-3.2344 0-5.8594-2.625-5.8594-5.8594zm7.8125-7.8125h-1.9531c-1.9414 0-3.5156 1.5742-3.5156 3.5156v62.5c0 1.9414 1.5742 3.5156 3.5156 3.5156h46.875c1.9453 0 3.5156-1.5742 3.5156-3.5156v-1.9531h-42.578c-3.2344 0-5.8594-2.625-5.8594-5.8594zm40.625-7.8125h-34.766c-1.9414 0-3.5156 1.5742-3.5156 3.5156v62.5c0 1.9414 1.5742 3.5156 3.5156 3.5156h46.875c1.9414 0 3.5156-1.5742 3.5156-3.5156v-50.391h-9.7656c-1.5547 0-3.0469-0.61719-4.1445-1.7148-1.0977-1.1016-1.7148-2.5898-1.7148-4.1445zm13.969 13.281-11.625-11.625v8.1094c0 0.93359 0.37109 1.8281 1.0273 2.4844 0.66016 0.66016 1.5547 1.0312 2.4883 1.0312zm-44.047 41.406c-0.64453 0-1.1719-0.52344-1.1719-1.1719s0.52344-1.1719 1.1719-1.1719h37.5c0.64844 0 1.1719 0.52344 1.1719 1.1719s-0.52344 1.1719-1.1719 1.1719zm0 6.25c-0.64453 0-1.1719-0.52344-1.1719-1.1719s0.52344-1.1719 1.1719-1.1719h37.5c0.64844 0 1.1719 0.52344 1.1719 1.1719s-0.52344 1.1719-1.1719 1.1719zm18.75-47.656c7.5469 0 13.672 6.125 13.672 13.672s-6.125 13.672-13.672 13.672-13.672-6.125-13.672-13.672 6.125-13.672 13.672-13.672zm0 2.3438c-6.25 0-11.328 5.0742-11.328 11.328s5.0781 11.328 11.328 11.328c6.2539 0 11.328-5.0742 11.328-11.328s-5.0742-11.328-11.328-11.328zm-6.2969 12.023c-0.45703-0.45703-0.45703-1.1992 0-1.6562 0.45703-0.45703 1.1992-0.45703 1.6562 0l2.8008 2.8008c0.15234 0.15234 0.39844 0.15234 0.55078 0l5.9297-5.9258c0.45703-0.45703 1.1992-0.45703 1.6562 0 0.45703 0.45703 0.45703 1.1992 0 1.6562l-5.9258 5.9258c-1.0703 1.0664-2.8008 1.0664-3.8672 0l-2.8008-2.8047z" fill-rule="evenodd"/>
</svg>