<svg xmlns="http://www.w3.org/2000/svg" version="1.1" viewBox="0 0 100 100">
 <path d="m74.941 6.25h-49.883c-2.8242 0.003906-5.1133 2.293-5.1172 5.1172v77.266c0.003906 2.8242 2.293 5.1133 5.1172 5.1172h49.883c2.8242-0.003906 5.1133-2.293 5.1172-5.1172v-77.266c-0.003906-2.8242-2.293-5.1133-5.1172-5.1172zm-49.883 3.125h49.883c1.1016 0 1.9922 0.89453 1.9922 1.9922v4.7305h-53.867v-4.7305c0-1.0977 0.89062-1.9922 1.9922-1.9922zm49.883 81.25h-49.883c-1.1016 0-1.9922-0.89453-1.9922-1.9922v-69.41h53.867v69.41c0 1.0977-0.89062 1.9922-1.9922 1.9922z"/>
 <path d="m52.363 28.348c-1.3047-1.3008-3.4219-1.3008-4.7266 0l-5.9688 5.9688v-1.1523c0-0.85937-0.69922-1.5625-1.5625-1.5625h-6.5938c-0.86328 0-1.5625 0.70313-1.5625 1.5625v10.871l-6.1406 6.1406c-0.29297 0.29297-0.45703 0.69141-0.45703 1.1055s0.16406 0.8125 0.45703 1.1055l3.2969 3.2969c0.29297 0.29297 0.69141 0.45703 1.1055 0.45703 0.71484 0.054687 1.2852-0.62891 1.7344-1.0898v14.453l-1.7344 0.003906c-0.85156 0.011719-1.5391 0.70703-1.5391 1.5625 0 0.85156 0.6875 1.5469 1.5391 1.5625h39.578c0.86328 0 1.5625-0.70312 1.5625-1.5625 0-0.86328-0.69922-1.5625-1.5625-1.5625h-1.7383v-14.457l0.63281 0.63281c0.61328 0.60547 1.5977 0.60547 2.2109 0l3.2969-3.2969c0.29297-0.29297 0.45703-0.69141 0.45703-1.1055s-0.16406-0.8125-0.45703-1.1055zm-17.293 6.3789h3.4727v2.7148l-3.4727 3.4727zm29.855 34.781h-29.852v-17.582l14.926-14.926 14.926 14.926zm4.8594-17.137c-0.49219-0.5-17.523-17.52-18.684-18.684l0.003907-0.003906c-0.29297-0.29297-0.69141-0.45703-1.1055-0.45703s-0.8125 0.16406-1.1055 0.45703l-16.488 16.492-2.1953 2.1953-1.0898-1.0898 5.4922-5.4922c3.6836-3.6914 11.504-11.5 15.23-15.23h0.003906c0.082032-0.085938 0.22266-0.085938 0.30469 0l20.723 20.723z"/>
 <path d="m45.016 45.855c0.03125 2.7305 2.2539 4.9258 4.9844 4.9258s4.9531-2.1953 4.9844-4.9258c-0.03125-2.7305-2.2539-4.9297-4.9844-4.9297s-4.9531 2.1992-4.9844 4.9297zm6.8398 0h0.003906c-0.015625 1.0156-0.84375 1.8281-1.8594 1.8281s-1.8438-0.8125-1.8594-1.8281c0.015625-1.0195 0.84375-1.8359 1.8594-1.8359s1.8438 0.81641 1.8594 1.8359z"/>
 <path d="m56.027 84.598h-12.055c-0.85156 0.015625-1.5312 0.71094-1.5312 1.5625 0 0.85156 0.67969 1.5469 1.5312 1.5625h12.055c0.85156-0.015625 1.5312-0.71094 1.5312-1.5625 0-0.85156-0.67969-1.5469-1.5312-1.5625z"/>
 <path d="m50 14.043c0.85938-0.015625 1.5469-0.71484 1.5469-1.5703 0-0.85938-0.6875-1.5586-1.5469-1.5703-0.85938 0.011718-1.5469 0.71094-1.5469 1.5703 0 0.85547 0.6875 1.5547 1.5469 1.5703z"/>
</svg>