<svg xmlns="http://www.w3.org/2000/svg" xmlns:xlink="http://www.w3.org/1999/xlink" version="1.1" x="0px" y="0px" viewBox="0 0 52 52" style="enable-background:new 0 0 52 52;" xml:space="preserve"><style type="text/css">
	.st0{fill:none;stroke:#000000;stroke-width:2;stroke-linecap:round;stroke-linejoin:round;stroke-miterlimit:10;}
</style><g><g><g><path d="M41.0002441,50H10.9997559c-1.6542969,0-3-1.3457031-3-3V5c0-1.6542969,1.3457031-3,3-3h21.1142578     c0.269043,0,0.5268555,0.1083984,0.715332,0.3012695l10.8862305,11.1401367     c0.1826172,0.1865234,0.284668,0.4375,0.284668,0.6987305V47C44.0002441,48.6542969,42.654541,50,41.0002441,50z M10.9997559,4     c-0.5512695,0-1,0.4487305-1,1v42c0,0.5512695,0.4487305,1,1,1h30.0004883c0.5512695,0,1-0.4487305,1-1V14.5478516L31.6931152,4     H10.9997559z" fill="#000000" stroke="#000000" stroke-width="1" stroke-linecap="round" stroke-linejoin="round"/></g></g><g><path d="M43.0002441,15.1401367h-8.8862305c-1.6542969,0-3-1.3457031-3-3V3c0-0.5522461,0.4477539-1,1-1s1,0.4477539,1,1    v9.1401367c0,0.5512695,0.4487305,1,1,1h8.8862305c0.5522461,0,1,0.4477539,1,1S43.5524902,15.1401367,43.0002441,15.1401367z" fill="#000000" stroke="#000000" stroke-width="1" stroke-linecap="round" stroke-linejoin="round"/></g><g><path d="M25.0002441,20h-8c-0.5522461,0-1-0.4477539-1-1V8c0-0.5522461,0.4477539-1,1-1h8c0.5522461,0,1,0.4477539,1,1v11    C26.0002441,19.5522461,25.5524902,20,25.0002441,20z M18.0002441,18h6V9h-6V18z" fill="#000000" stroke="#000000" stroke-width="1" stroke-linecap="round" stroke-linejoin="round"/></g><g><path d="M14.0007324,27.0009766c-0.5522461,0-1-0.4477539-1-1s0.4477539-1,1-1L38.0002441,25c0.5522461,0,1,0.4477539,1,1    s-0.4477539,1-1,1L14.0007324,27.0009766z" fill="#000000" stroke="#000000" stroke-width="1" stroke-linecap="round" stroke-linejoin="round"/></g><g><path d="M14.0002441,34.0019531c-0.5522461,0-1-0.4477539-1-1s0.4477539-1,1-1l23.9990234-0.0009766c0.5522461,0,1,0.4477539,1,1    s-0.4477539,1-1,1L14.0002441,34.0019531z" fill="#000000" stroke="#000000" stroke-width="1" stroke-linecap="round" stroke-linejoin="round"/></g><g><path d="M13.9997559,41.0029297c-0.5522461,0-1-0.4477539-1-1s0.4477539-1,1-1l23.9990234-0.0009766c0.5522461,0,1,0.4477539,1,1    s-0.4477539,1-1,1L13.9997559,41.0029297z" fill="#000000" stroke="#000000" stroke-width="1" stroke-linecap="round" stroke-linejoin="round"/></g></g></svg>