<svg xmlns="http://www.w3.org/2000/svg" version="1.1" viewBox="0 0 100 100">
 <path d="m31.289 15.941c-0.87109-0.875-2.1836-1.1367-3.3242-0.66797-1.1406 0.47266-1.8828 1.582-1.8867 2.8164v6.5508c0.007813 1.2305 0.75391 2.3359 1.8906 2.8086 1.1367 0.47266 2.4453 0.21484 3.3203-0.64844 0.58203-0.57031 0.90625-1.3477 0.90234-2.1602v-6.5508c0-0.80859-0.32422-1.582-0.90234-2.1484zm-23.391 56.219v17.461c0 1.4609 1.1875 2.6484 2.6523 2.6484h16.641c-8.2695-4.2695-15.52-10.75-19.293-20.109zm19.93-24.332h-10.316c-0.55469 0-1 0.44922-1 1v10.312c0 0.26562 0.10547 0.51953 0.29297 0.70703s0.44141 0.29297 0.70703 0.29297h10.316c0.26562 0 0.51953-0.10547 0.70703-0.29297 0.19141-0.1875 0.29297-0.44141 0.29297-0.70703v-10.32c0-0.26562-0.10156-0.51953-0.29297-0.70703-0.1875-0.1875-0.44141-0.29297-0.70703-0.29297zm-10.316-2.7188h10.316c2.0508 0 3.7148 1.6602 3.7227 3.7109v10.32c-0.007812 2.0508-1.668 3.7148-3.7227 3.7188h-10.316c-2.0547-0.003906-3.7148-1.668-3.7227-3.7188v-10.32c0.007813-2.0508 1.6719-3.7109 3.7227-3.7109zm69.77-32.559c-3.0859-3.0859-7.2695-4.8164-11.633-4.8164-4.3633 0-8.5469 1.7344-11.629 4.8203-3.0859 3.0859-4.8164 7.2695-4.8164 11.629 0 4.3633 1.7305 8.5469 4.8164 11.633 3.082 3.0859 7.2656 4.8164 11.629 4.8203 4.3633 0 8.5469-1.7344 11.633-4.8164 3.0859-3.0859 4.8203-7.2695 4.8203-11.637 0-4.3633-1.7344-8.5469-4.8203-11.633zm-26.281 24h-53.102v-11.172c0.007812-1.4609 1.1914-2.6445 2.6523-2.6484h12.809v1.9102c0 3.1914 2.5898 5.7812 5.7812 5.7812s5.7812-2.5898 5.7812-5.7812v-1.9102h21.59c-0.38281 5.0156 1.2305 9.9844 4.4883 13.82zm23.371 4.7383v48.332c0 0.70312-0.28125 1.375-0.77734 1.8711-0.49609 0.5-1.1719 0.77734-1.875 0.77734h-47.359c-2.5586-4.0781-3-9.5391 0.32812-13.578h0.003906c0.33984-0.41406 0.41016-0.98828 0.17578-1.4688-0.23438-0.48047-0.73047-0.78125-1.2656-0.76172-6.7383 0.23828-13-0.5-17.672-3.1484-4.5-2.5508-7.5312-7-8-14.18v-19.852h55.871c2.8789 2.2539 6.3438 3.6367 9.9844 3.9922 3.6367 0.35547 7.3047-0.33594 10.566-1.9922zm-8.7305-36.289c5.4141 0.003906 10.574 2.293 14.207 6.3008 3.6367 4.0117 5.4102 9.3711 4.8828 14.758-0.52734 5.3867-3.3047 10.301-7.6523 13.531v50c0.007813 1.4297-0.55859 2.8047-1.5664 3.8203-1.0078 1.0156-2.3789 1.5859-3.8125 1.5898h-71.148c-2.9688-0.003906-5.375-2.4102-5.3789-5.3789v-64.242c0.003906-2.9688 2.4102-5.375 5.3789-5.3789h12.809v-1.9102c0-3.1914 2.5898-5.7812 5.7812-5.7812s5.7812 2.5898 5.7812 5.7812v1.9102h22c0.94922-4.2539 3.3242-8.0586 6.7266-10.785 3.4023-2.7266 7.6328-4.2148 11.992-4.2148zm-1.3594 8.6719c-0.035156-0.38281 0.09375-0.76172 0.35547-1.0469 0.25781-0.28125 0.625-0.44141 1.0078-0.44141 0.38281 0 0.75 0.16016 1.0078 0.44141 0.26172 0.28516 0.39062 0.66406 0.35938 1.0469v10l8.6289 8.6289c0.53125 0.53125 0.53125 1.3945 0 1.9297-0.53516 0.53125-1.3984 0.53125-1.9297 0l-9-9c-0.26953-0.26172-0.41797-0.625-0.41016-1v-10.559zm-49.703 37.328c0.25-0.26562 0.58984-0.42188 0.95312-0.43359 0.35938-0.015625 0.71484 0.11719 0.98047 0.36328 0.55078 0.51562 0.58203 1.3789 0.066406 1.9297l-3.8867 4.1406c-0.25781 0.28125-0.62109 0.4375-1 0.4375-0.38281 0-0.74219-0.15625-1-0.4375l-1.9297-2c-0.25-0.26562-0.38281-0.61719-0.37109-0.98047s0.16797-0.70703 0.43359-0.95312c0.55469-0.51953 1.418-0.48828 1.9375 0.0625l0.94141 1 2.8789-3zm26.898-3.1719h-10.316c-0.55078 0-1 0.44922-1 1v10.312c0 0.26562 0.10547 0.51953 0.29297 0.70703s0.44141 0.29297 0.70703 0.29297h10.32c0.26562 0 0.51953-0.10547 0.70703-0.29297s0.29297-0.44141 0.29297-0.70703v-10.32c0-0.26562-0.10547-0.51953-0.29297-0.70703s-0.44141-0.29297-0.70703-0.29297zm-10.316-2.7188c-2.0508 0-3.7148 1.6602-3.7188 3.7109v10.32c0.003906 2.0508 1.668 3.7148 3.7188 3.7188h10.32c2.0508-0.003906 3.7148-1.668 3.7188-3.7188v-10.32c-0.003907-2.0508-1.668-3.7109-3.7188-3.7109zm34 2.7188h-10.352c-0.55078 0-1 0.44922-1 1v10.312c0 0.26562 0.10547 0.51953 0.29297 0.70703s0.44141 0.29297 0.70703 0.29297h10.32c0.26562 0 0.51953-0.10547 0.70703-0.29297s0.29297-0.44141 0.29297-0.70703v-10.32c0-0.26562-0.10547-0.51953-0.29297-0.70703s-0.44141-0.29297-0.70703-0.29297zm-10.352-2.7188c-2.0508 0-3.7148 1.6602-3.7188 3.7109v10.32c0.003906 2.0508 1.668 3.7148 3.7188 3.7188h10.32c2.0547-0.003906 3.7148-1.668 3.7227-3.7188v-10.32c-0.007812-2.0508-1.6719-3.7109-3.7227-3.7109zm10.32 26.312h-10.32c-0.55078 0-1 0.44531-1 1v10.309c0 0.26562 0.10547 0.51953 0.29297 0.70703s0.44141 0.29297 0.70703 0.29297h10.32c0.26562 0 0.51953-0.10547 0.70703-0.29297s0.29297-0.44141 0.29297-0.70703v-10.32c0-0.26562-0.10547-0.51953-0.29297-0.70703s-0.44141-0.29297-0.70703-0.29297zm-10.32-2.7305c-2.0508 0.003906-3.7148 1.668-3.7188 3.7188v10.32c0.003906 2.0508 1.668 3.7148 3.7188 3.7188h10.32c2.0547-0.003907 3.7148-1.668 3.7227-3.7188v-10.32c-0.007812-2.0508-1.668-3.7148-3.7227-3.7188zm-13.328 2.7305h-10.32c-0.55078 0-1 0.44531-1 1v10.309c0 0.26562 0.10547 0.51953 0.29297 0.70703s0.44141 0.29297 0.70703 0.29297h10.32c0.26562 0 0.51953-0.10547 0.70703-0.29297s0.29297-0.44141 0.29297-0.70703v-10.32c0-0.26562-0.10547-0.51953-0.29297-0.70703s-0.44141-0.29297-0.70703-0.29297zm-10.32-2.7305c-2.0508 0.003906-3.7148 1.668-3.7188 3.7188v10.32c0.003906 2.0508 1.668 3.7148 3.7188 3.7188h10.32c2.0508-0.003907 3.7148-1.668 3.7188-3.7188v-10.32c-0.003907-2.0508-1.668-3.7148-3.7188-3.7188zm-29.68 4.7891c5 4.3984 12.281 5.7109 19.602 5.7383h-0.003906c-1.8359 3.6562-1.9883 7.9336-0.41797 11.711-7.7188-3.5195-15.012-9.0703-19.18-17.449z" fill="#000000" stroke="#000000" stroke-width="2" stroke-linecap="round" stroke-linejoin="round" fill-rule="evenodd"/>
</svg>