<svg xmlns="http://www.w3.org/2000/svg" viewBox="20 20 260 207" width="300" height="247" fill="black" stroke="black" stroke-width="3" stroke-linejoin="round" stroke-linecap="round" shape-rendering="geometricPrecision">
  <path d="M 82,20 65,28 58,33 46,45 40,54 34,67 31,79 30,96 31,97 31,104 32,105 33,113 41,130 36,139 35,143 35,150 37,156 45,165 52,168 58,168 59,169 60,178 65,186 73,191 81,192 84,203 88,209 95,214 104,215 106,217 106,221 109,229 116,236 123,239 132,239 138,237 143,233 145,233 149,237 155,240 166,240 169,239 177,233 182,223 184,224 193,224 200,221 206,215 209,208 209,203 210,202 215,202 222,199 228,193 230,189 231,181 232,180 237,180 244,177 251,169 253,163 253,157 250,149 259,140 265,132 272,118 275,108 275,103 276,102 276,81 272,65 263,48 250,34 240,27 230,22 216,18 195,17 194,18 184,19 168,25 154,35 151,34 142,27 123,19 113,18 112,17 97,17 96,18 90,18 Z M 166,211 171,217 171,222 166,229 158,230 153,227 152,224 164,211 Z M 153,190 157,196 157,203 156,205 134,227 130,229 126,229 121,227 118,224 116,219 116,215 118,211 140,189 142,188 150,188 Z M 129,166 134,174 132,182 110,204 108,205 101,205 97,203 93,198 93,190 94,188 117,165 125,164 Z M 105,142 110,149 110,155 107,160 88,179 85,181 76,181 69,173 69,167 71,163 92,142 97,140 Z M 81,118 86,124 86,132 85,134 62,157 59,158 52,157 46,151 45,145 47,140 69,118 71,117 79,117 Z M 107,88 168,37 183,30 191,28 206,27 207,28 218,29 235,36 242,41 252,51 260,63 265,77 266,100 262,115 257,125 252,132 244,140 242,140 197,95 200,92 204,92 213,89 225,81 227,78 227,74 224,71 220,71 213,77 205,81 197,83 185,83 184,82 176,81 169,78 161,78 145,89 130,94 116,94 108,91 Z M 66,40 82,31 93,28 100,28 101,27 109,27 110,28 116,28 124,30 143,40 145,42 144,44 99,81 97,85 97,93 100,98 104,101 114,104 133,104 152,97 164,88 180,92 241,154 243,159 242,164 237,169 230,170 226,168 194,136 188,137 187,139 188,145 220,177 221,183 220,186 215,191 208,192 203,189 174,159 172,158 166,159 165,165 197,197 199,201 198,208 193,213 187,214 184,213 167,198 167,193 164,187 157,180 152,178 147,178 144,176 144,172 142,166 137,159 130,155 121,154 120,153 119,144 113,135 106,131 98,130 97,129 96,121 89,111 84,108 77,106 68,107 62,110 49,122 45,116 41,102 41,81 45,67 53,53 Z"/>
</svg>
