<svg xmlns="http://www.w3.org/2000/svg" xmlns:xlink="http://www.w3.org/1999/xlink" version="1.1" x="0px" y="0px" viewBox="0 0 52 52" style="enable-background:new 0 0 52 52;" xml:space="preserve"><style type="text/css">
	.st0{fill:none;stroke:#000000;stroke-width:2;stroke-linecap:round;stroke-linejoin:round;stroke-miterlimit:10;}
</style><g><g><path d="M18,50h-8c-0.5527344,0-1-0.4477539-1-1V7c0-2.7568359,2.2431641-5,5-5    c1.3251953,0,2.5791016,0.5175781,3.5322266,1.4580078C18.4824219,4.4213867,19,5.6757813,19,7v42    C19,49.5522461,18.5527344,50,18,50z M11,48h6V7c0-0.7954102-0.3134766-1.5512695-0.8818359-2.1279297    C15.5517578,4.3129883,14.7958984,4,14,4c-1.6542969,0-3,1.3457031-3,3V48z" fill="#000000" stroke="#000000" stroke-width="1" stroke-linecap="round" stroke-linejoin="round"/></g><g><path d="M10,18H3c-0.5527344,0-1-0.4477539-1-1V9c0-0.5522461,0.4472656-1,1-1h7c0.5527344,0,1,0.4477539,1,1s-0.4472656,1-1,1H4    v6h6c0.5527344,0,1,0.4477539,1,1S10.5527344,18,10,18z" fill="#000000" stroke="#000000" stroke-width="1" stroke-linecap="round" stroke-linejoin="round"/></g><g><path d="M45,18H18c-0.5527344,0-1-0.4477539-1-1s0.4472656-1,1-1h27c0.7958984,0,1.5517578-0.3129883,2.1279297-0.8813477    C47.6865234,14.5512695,48,13.7954102,48,13c0-1.6542969-1.3457031-3-3-3H18c-0.5527344,0-1-0.4477539-1-1s0.4472656-1,1-1h27    c2.7568359,0,5,2.2431641,5,5c0,1.3242188-0.5175781,2.5786133-1.4580078,3.5322266C47.5800781,17.4819336,46.3251953,18,45,18z" fill="#000000" stroke="#000000" stroke-width="1" stroke-linecap="round" stroke-linejoin="round"/></g><g><path d="M45.9970703,38.0014648h-24c-0.5527344,0-1-0.4477539-1-1v-16c0-0.5522461,0.4472656-1,1-1h24    c0.5527344,0,1,0.4477539,1,1v16C46.9970703,37.5537109,46.5498047,38.0014648,45.9970703,38.0014648z M22.9970703,36.0014648h22    v-14h-22V36.0014648z" fill="#000000" stroke="#000000" stroke-width="1" stroke-linecap="round" stroke-linejoin="round"/></g><g><path d="M23.9970703,22.0014648c-0.5527344,0-1-0.4477539-1-1v-4c0-0.5522461,0.4472656-1,1-1s1,0.4477539,1,1v4    C24.9970703,21.5537109,24.5498047,22.0014648,23.9970703,22.0014648z" fill="#000000" stroke="#000000" stroke-width="1" stroke-linecap="round" stroke-linejoin="round"/></g><g><path d="M43.9970703,22.0014648c-0.5527344,0-1-0.4477539-1-1v-4c0-0.5522461,0.4472656-1,1-1s1,0.4477539,1,1v4    C44.9970703,21.5537109,44.5498047,22.0014648,43.9970703,22.0014648z" fill="#000000" stroke="#000000" stroke-width="1" stroke-linecap="round" stroke-linejoin="round"/></g><g><path d="M41.9970703,27h-16c-0.5527344,0-1-0.4477539-1-1s0.4472656-1,1-1h16c0.5527344,0,1,0.4477539,1,1    S42.5498047,27,41.9970703,27z" fill="#000000" stroke="#000000" stroke-width="1" stroke-linecap="round" stroke-linejoin="round"/></g><g><path d="M41.9970703,33.0014648h-16c-0.5527344,0-1-0.4477539-1-1s0.4472656-1,1-1h16c0.5527344,0,1,0.4477539,1,1    S42.5498047,33.0014648,41.9970703,33.0014648z" fill="#000000" stroke="#000000" stroke-width="1" stroke-linecap="round" stroke-linejoin="round"/></g></g></svg>