<svg xmlns="http://www.w3.org/2000/svg" version="1.1" viewBox="0 0 100 100">
 <path d="m7.832 35.691h10.922c8.1953 0.22656 8.2969 12.273 0 12.5h-10.922c-0.52344 0-1.0117 0.26172-1.3047 0.69922-0.28906 0.4375-0.33984 0.98828-0.13672 1.4727 0.84375 1.9883 1.9688 3.8086 3.3477 5.4102 0.30859 0.35937 0.74609 0.54297 1.1836 0.54297 1.2852 0.042969 2.0703-1.6211 1.1836-2.582-0.64844-0.75-1.2266-1.5586-1.7422-2.418h8.3828c5.0508 0.10156 9.4609-4.3398 9.375-9.375 0-5.168-4.207-9.375-9.375-9.375h-8.3867c3.5898-6.1328 10.719-9.2695 17.328-7.1641 1.9609 0.57812 2.8867-2.3359 0.92969-2.9844-8.9414-2.8359-18.516 2.1367-22.234 11.105-0.44922 0.98437 0.35547 2.1992 1.4414 2.168z" fill="#000000" stroke="#000000" stroke-width="2" stroke-linecap="round" stroke-linejoin="round"/>
 <path d="m95.301 48.191h-10.922c-3.4453 0-6.25-2.8047-6.25-6.25 0-3.4453 2.8047-6.25 6.25-6.25h10.922c1.082 0.03125 1.8906-1.1836 1.4414-2.168-3.8516-9.3398-14.109-14.305-23.262-10.746-1.9062 0.76562-0.82422 3.6211 1.1094 2.9219 6.793-2.6484 14.438 0.45312 18.18 6.8672h-8.3906c-5.168 0-9.375 4.207-9.375 9.375 0 5.168 4.207 9.375 9.375 9.375h8.3906c-6.5781 11.293-22.266 9.957-27.246-2.168-0.24219-0.57813-0.8125-0.95703-1.4414-0.95703h-12.375c-0.86328 0-1.5625 0.69922-1.5625 1.5625 0 0.86328 0.69922 1.5625 1.5625 1.5625h11.367c7.1289 14.938 27.289 14.34 33.668-0.95703 0.44922-0.98438-0.35547-2.1992-1.4414-2.168z" fill="#000000" stroke="#000000" stroke-width="2" stroke-linecap="round" stroke-linejoin="round"/>
 <path d="m8.5859 85.535c0.52344-0.03125 0.99219-0.32422 1.2539-0.77734l5.4609-9.4609c2.6055-4.7773 10.172-3.7852 11.449 1.5078 0.43359 1.6133 0.21094 3.2969-0.625 4.7422l-5.4609 9.4609c-1.0508 2.5469 2.0977 2.5 3.7578 2.4961 15.277 0.10156 23.77-16.258 15.062-28.844l11.508-19.93c16.5 1.3008 26.059-16.469 16.008-29.637-0.31641-0.41797-0.78516-0.65234-1.3438-0.61719-0.52344 0.03125-0.99219 0.32422-1.2539 0.77734l-5.4609 9.457c-4.3594 7.0273-14.738 1.0234-10.824-6.25 0 0 5.4609-9.457 5.4609-9.457 0.26172-0.45312 0.27734-1.0078 0.046875-1.4766-0.23438-0.46875-0.68359-0.78906-1.207-0.85547-16.43-2.1328-27.039 15.047-17.66 28.68l-11.508 19.93c-16.5-1.3047-26.062 16.469-16.008 29.637 0.31641 0.41797 0.81641 0.65625 1.3438 0.61719zm-0.41016-19.762c3.0273-5.2422 9.1992-8.1016 15.73-7.2812 0.61719 0.082031 1.2344-0.22656 1.5469-0.76953l12.516-21.676c0.3125-0.54297 0.27344-1.2227-0.10938-1.7266-8.0156-10.371-1.3164-24.641 11.746-24.68l-4.1953 7.2656c-2.6094 4.3125-0.98438 10.375 3.4336 12.809 4.4766 2.582 10.223 1.043 12.809-3.4336l4.1953-7.2656c6.4883 11.348-2.5039 24.254-15.504 22.512-0.625-0.082032-1.2305 0.22266-1.5469 0.76953l-12.516 21.676c-0.3125 0.54297-0.27344 1.2227 0.10938 1.7266 8.0156 10.367 1.3164 24.641-11.746 24.68l4.1953-7.2656c2.6094-4.3125 0.98438-10.375-3.4336-12.809-4.3281-2.6094-10.375-0.98438-12.809 3.4336l-4.1953 7.2656c-2.7383-4.8828-2.875-10.645-0.22656-15.23z" fill="#000000" stroke="#000000" stroke-width="2" stroke-linecap="round" stroke-linejoin="round"/>
</svg>