<svg xmlns="http://www.w3.org/2000/svg" version="1.1" viewBox="0 0 100 100">
 <path d="m29.637 9.582v16.145h3.3711v-12.777h55.785v74.102h-55.785v-13.727h-3.3711v17.094h62.527v-80.836z" fill="#000000" stroke="#000000" stroke-width="2" stroke-linecap="round" stroke-linejoin="round"/>
 <path d="m42.727 66.086c4.8281 0 9.6562-1.8359 13.332-5.5117 7.3516-7.3516 7.3516-19.309 0-26.664-7.3516-7.3516-19.312-7.3516-26.66 0-6.4453 6.4453-7.2344 16.426-2.3828 23.742l-16.398 16.398c-1.4609 1.4609-1.4609 3.8359 0 5.3008 1.4609 1.4609 3.8359 1.4609 5.3008 0l16.398-16.398c3.1445 2.0859 6.7734 3.1328 10.414 3.1328zm-10.949-29.789c3.0195-3.0195 6.9844-4.5273 10.949-4.5273 3.9648 0 7.9297 1.5078 10.949 4.5273 6.0391 6.0391 6.0391 15.859 0 21.895-6.0391 6.0391-15.863 6.0391-21.898 0-6.0391-6.0391-6.0391-15.859 0-21.895z" fill="#000000" stroke="#000000" stroke-width="2" stroke-linecap="round" stroke-linejoin="round"/>
 <path d="m39.477 78h42.852v3.3672h-42.852z" fill="#000000" stroke="#000000" stroke-width="2" stroke-linecap="round" stroke-linejoin="round"/>
 <path d="m39.477 68.625h42.852v3.3672h-42.852z" fill="#000000" stroke="#000000" stroke-width="2" stroke-linecap="round" stroke-linejoin="round"/>
 <path d="m67.926 59.25h14.398v3.3672h-14.398z" fill="#000000" stroke="#000000" stroke-width="2" stroke-linecap="round" stroke-linejoin="round"/>
 <path d="m67.926 49.875h14.398v3.3672h-14.398z" fill="#000000" stroke="#000000" stroke-width="2" stroke-linecap="round" stroke-linejoin="round"/>
 <path d="m67.926 40.5h14.398v3.3672h-14.398z" fill="#000000" stroke="#000000" stroke-width="2" stroke-linecap="round" stroke-linejoin="round"/>
 <path d="m67.926 31.125h14.398v3.3672h-14.398z" fill="#000000" stroke="#000000" stroke-width="2" stroke-linecap="round" stroke-linejoin="round"/>
 <path d="m39.477 21.75h42.852v3.3672h-42.852z" fill="#000000" stroke="#000000" stroke-width="2" stroke-linecap="round" stroke-linejoin="round"/>
</svg>